<svg id="Layer_1" data-name="Layer 1" xmlns="http://www.w3.org/2000/svg" xmlns:xlink="http://www.w3.org/1999/xlink" viewBox="0 0 1051.5 345.7"><defs><style>.cls-1,.cls-2,.cls-3,.cls-5{fill:none;}.cls-1{clip-rule:evenodd;}.cls-2{fill-rule:evenodd;}.cls-3{stroke:#000;stroke-miterlimit:8;stroke-width:7.06px;}.cls-4{clip-path:url(#clip-path);}.cls-6{clip-path:url(#clip-path-29);}</style><clipPath id="clip-path" transform="translate(-263.64 -85.93)"><polygon class="cls-1" points="263.64 431.63 1315.14 431.63 1315.14 85.94 263.64 85.94 263.64 431.63 263.64 431.63"/></clipPath><clipPath id="clip-path-29" transform="translate(-263.64 -85.93)"><polygon class="cls-1" points="410.96 157.85 583.12 157.85 583.12 118.16 410.96 118.16 410.96 157.85 410.96 157.85"/></clipPath></defs><title>Map_Traced</title><path class="cls-3" d="M400.48,155.6c4.81,25.15,9.61,50.29,14.12,64.57s7.06,12.91,12.94,21.13,13.92,20.15,22.35,28.18,17.45,13.3,28.23,19.95,22.94,14.68,36.47,20,29,8.61,44.7,11.74a421.49,421.49,0,0,0,49.41,7c20,1.76,70.59,3.53,70.59,3.53,24.11,1.37,52.74,4.1,74.11,4.69l54.11-1.17c22.35-1.57,53.53-4.31,80-8.22s54.7-9.39,78.81-15.26,12.16,2.54,65.88-20,144.93-64,246.3-110.28" transform="translate(-263.64 -85.93)"/><g class="cls-4"><path class="cls-3" d="M461.4,153.84c2.75,17.32,5.49,34.65,8.24,46.06s2.94,13.78,8.24,22.44,15.5,21.46,23.54,29.53,13.93,12.4,24.72,18.9,23.74,15,40,20.08,38.84,8.07,57.68,10.63,32,3.35,55.33,4.72,54.15,4.53,84.75,3.55,68.47-4.92,98.88-9.45,54.35-9.06,83.58-17.72,40.81-13,91.82-34.25,132.63-57.28,214.25-93.31" transform="translate(-263.64 -85.93)"/><g class="cls-4"><path class="cls-3" d="M520.55,151.54C523.3,169.35,526,187.16,530,200a88.54,88.54,0,0,0,14.12,28.34c5.88,8.27,11.37,15,21.18,21.26s19.41,12.2,37.65,16.53,46.48,7.28,71.77,9.45,56.09,3.54,80,3.54a584.51,584.51,0,0,0,63.54-3.54c21.18-2.17,41.57-4.73,63.53-9.45s16.48,2.16,68.25-18.89,147.08-64.26,242.39-107.46" transform="translate(-263.64 -85.93)"/><g class="cls-4"><path class="cls-3" d="M578.82,152.08c2.75,15.83,5.5,31.67,8.25,42.23s3.15,14.08,8.25,21.11,15.13,16.43,22.39,21.12,10.61,4.89,21.22,7,20.82,4.69,42.43,5.86,62.06,1.76,87.21,1.18S813,248,832.21,245.93" transform="translate(-263.64 -85.93)"/><g class="cls-4"><line class="cls-3" x1="987.94" y1="68.79" x2="1014.86" y2="86.57"/><g class="cls-4"><line class="cls-3" x1="90.05" y1="70.85" x2="315.3" y2="66.14"/><g class="cls-4"><line class="cls-3" x1="567.69" y1="156.98" x2="568.16" y2="172.36"/><g class="cls-4"><path class="cls-3" d="M833.09,255.26l20.48-1.42c10.83-2,29.66-6.63,44.49-10.65s36.6-10.65,44.49-13.49,5.35-3.19,2.82-3.54" transform="translate(-263.64 -85.93)"/><g class="cls-4"><path class="cls-3" d="M974.35,200.58c2.37,2.59,4.74,5.18,7.12,6.36s-7.59,6.46,7.11.7,47.91-20.52,81.12-35.28" transform="translate(-263.64 -85.93)"/><g class="cls-4"><line class="cls-3" x1="684.06" y1="140.12" x2="678.05" y2="126.11"/><g class="cls-4"><line class="cls-3" x1="677.16" y1="130.12" x2="716.07" y2="112"/><g class="cls-4"><line class="cls-3" x1="798.12" y1="74.08" x2="805.91" y2="89.71"/><g class="cls-4"><line class="cls-3" x1="798.12" y1="77.1" x2="871.09" y2="44.09"/><g class="cls-4"><line class="cls-3" x1="866.1" y1="45.33" x2="1014.86" y2="40.57"/><g class="cls-4"><line class="cls-3" x1="988.82" y1="69.55" x2="988.82" y2="39.69"/><g class="cls-4"><line class="cls-3" x1="927.02" y1="57.58" x2="927.02" y2="42.33"/><g class="cls-4"><polygon class="cls-3" points="335.49 268.98 540.32 268.98 540.32 298.96 335.49 298.96 335.49 268.98 335.49 268.98"/><g class="cls-4"><path class="cls-3" d="M358.1,159.13c1.38,5.6,2.75,11.19,4.71,18.84s3.92,16.49,7.05,27.09,7.06,26.1,11.76,36.5a106.37,106.37,0,0,0,16.47,25.91c6.47,7.66,13.52,13.35,22.34,20s19.8,14.33,30.58,20,20.58,9.23,34.1,14.13,26.66,10.21,47,15.31,54.1,12.17,75.27,15.31,36.46,3.34,51.74,3.53" transform="translate(-263.64 -85.93)"/><g class="cls-4"><path class="cls-3" d="M804,355.79c22.53-.67,45.07-1.34,71.16-4.62s60.1-9.43,85.4-15,42.5-10.2,66.42-18.47,77.1-31.18,77.1-31.18l174.46-76" transform="translate(-263.64 -85.93)"/><g class="cls-4"><line class="cls-3" x1="3.53" y1="42.33" x2="1014.42" y2="7.06"/><g class="cls-4"><line class="cls-3" x1="3.53" y1="104.94" x2="215.05" y2="342.09"/><g class="cls-4"><line class="cls-3" x1="3.53" y1="105.21" x2="3.53" y2="39.69"/><g class="cls-4"><line class="cls-3" x1="211.89" y1="342.17" x2="720.48" y2="342.17"/><g class="cls-4"><line class="cls-3" x1="719.54" y1="342.19" x2="1013.91" y2="272.5"/><g class="cls-4"><line class="cls-3" x1="1014.42" y1="275.74" x2="1014.42" y2="3.53"/><g class="cls-4"><path class="cls-3" d="M418.42,154" transform="translate(-263.64 -85.93)"/><path class="cls-3" d="M414.61,124.74" transform="translate(-263.64 -85.93)"/><g class="cls-4"><path class="cls-3" d="M437.85,154" transform="translate(-263.64 -85.93)"/><path class="cls-3" d="M434,124.74" transform="translate(-263.64 -85.93)"/><g class="cls-4"><path class="cls-3" d="M458.15,152.18" transform="translate(-263.64 -85.93)"/><path class="cls-3" d="M454.34,123" transform="translate(-263.64 -85.93)"/><g class="cls-4"><path class="cls-3" d="M478.46,151.3" transform="translate(-263.64 -85.93)"/><path class="cls-3" d="M474.64,122.09" transform="translate(-263.64 -85.93)"/><polygon class="cls-5" points="0 345.7 1051.5 345.7 1051.5 0 0 0 0 345.7 0 345.7"/></g></g></g></g></g></g></g></g></g></g></g></g></g></g></g></g></g></g></g></g></g></g></g></g></g></g></g></g><line class="cls-3" x1="150.86" y1="38.4" x2="154.67" y2="67.61"/><g class="cls-6"><line class="cls-3" x1="170.28" y1="38.4" x2="174.1" y2="67.61"/><g class="cls-6"><line class="cls-3" x1="190.59" y1="36.64" x2="194.4" y2="65.85"/><g class="cls-6"><line class="cls-3" x1="210.89" y1="35.75" x2="214.71" y2="64.96"/><g class="cls-6"><line class="cls-3" x1="229.43" y1="36.64" x2="233.25" y2="65.85"/><g class="cls-6"><line class="cls-3" x1="250.62" y1="35.75" x2="254.44" y2="64.96"/><g class="cls-6"><line class="cls-3" x1="268.28" y1="34.87" x2="272.1" y2="64.08"/><g class="cls-6"><line class="cls-3" x1="288.59" y1="33.99" x2="292.4" y2="63.2"/><g class="cls-6"><line class="cls-3" x1="308.01" y1="33.11" x2="315.33" y2="65.46"/></g></g></g></g></g></g></g></g></svg>